<mxfile host="app.diagrams.net" modified="2023-07-30T16:43:16.620Z" agent="Mozilla/5.0 (Macintosh; Intel Mac OS X 10_15_7) AppleWebKit/537.36 (KHTML, like Gecko) Chrome/115.0.0.0 Safari/537.36" version="21.6.5" etag="prryAk5jToyP26Lq7c0i" type="github">
  <diagram name="第 1 页" id="-oBkPQ_DBDkEdD8FPuH8">
    <mxGraphModel>
      <root>
        <mxCell id="0" />
        <mxCell id="1" parent="0" />
      </root>
    </mxGraphModel>
  </diagram>
</mxfile>
